<?xml version="1.0" encoding="utf-8"?>
<!-- Generator: Adobe Illustrator 23.0.0, SVG Export Plug-In . SVG Version: 6.00 Build 0)  -->
<svg version="1.1" id="Layer_1" xmlns="http://www.w3.org/2000/svg" xmlns:xlink="http://www.w3.org/1999/xlink" x="0px" y="0px"
	 viewBox="0 0 24 23.9" style="enable-background:new 0 0 24 23.9;" xml:space="preserve">
<path d="M22.1,7.5C20.4,3.7,16.5,0.9,12,0.9S3.6,3.7,1.9,7.5c0,0,0,0,0,0C1.3,8.9,1,10.4,1,11.9s0.3,3,0.9,4.4c0,0,0,0,0,0
	c1.7,3.9,5.6,6.6,10.1,6.6s8.4-2.7,10.1-6.6c0,0,0,0,0,0c0.6-1.3,0.9-2.8,0.9-4.4S22.7,8.9,22.1,7.5C22.1,7.5,22.1,7.5,22.1,7.5z
	 M12,20.9c-0.8,0-1.8-1.5-2.4-4h4.9C13.8,19.5,12.8,20.9,12,20.9z M9.2,14.9C9.1,14,9,13,9,11.9s0.1-2.1,0.2-3h5.6
	c0.1,0.9,0.2,1.9,0.2,3s-0.1,2.1-0.2,3H9.2z M3,11.9c0-1.1,0.2-2.1,0.5-3h3.7c-0.1,1-0.2,2-0.2,3s0.1,2,0.2,3H3.5
	C3.2,14,3,13,3,11.9z M12,2.9c0.8,0,1.8,1.5,2.4,4H9.6C10.2,4.4,11.2,2.9,12,2.9z M16.8,8.9h3.7c0.3,0.9,0.5,1.9,0.5,3
	s-0.2,2.1-0.5,3h-3.7c0.1-1,0.2-2,0.2-3S16.9,9.9,16.8,8.9z M19.5,6.9h-3c-0.3-1.3-0.7-2.4-1.2-3.4C17,4.3,18.5,5.4,19.5,6.9z
	 M8.7,3.6c-0.5,1-0.9,2.1-1.2,3.4h-3C5.5,5.4,7,4.3,8.7,3.6z M4.5,16.9h3c0.3,1.3,0.7,2.4,1.2,3.4C7,19.6,5.5,18.4,4.5,16.9z
	 M15.3,20.3c0.5-1,0.9-2.1,1.2-3.4h3C18.5,18.4,17,19.6,15.3,20.3z"/>
</svg>
