<?xml version="1.0" encoding="utf-8"?>
<!-- Generator: Adobe Illustrator 23.0.0, SVG Export Plug-In . SVG Version: 6.00 Build 0)  -->
<svg version="1.1" id="Layer_1" xmlns="http://www.w3.org/2000/svg" xmlns:xlink="http://www.w3.org/1999/xlink" x="0px" y="0px"
	 viewBox="0 0 24 24" style="enable-background:new 0 0 24 24;" xml:space="preserve">
<path d="M12,7c-2.8,0-5,2.3-5,5s2.3,5,5,5h5c2.8,0,5-2.3,5-5c0-5.5-4.5-10-10-10S2,6.5,2,12s4.5,10,10,10h10v-2.5H12
	c-4.1,0-7.5-3.4-7.5-7.5S7.9,4.5,12,4.5s7.5,3.4,7.5,7.5c0,1.4-1.1,2.5-2.5,2.5h-0.7c0.4-0.8,0.7-1.6,0.7-2.5C17,9.3,14.8,7,12,7z
	 M12,14.5c-1.4,0-2.5-1.1-2.5-2.5s1.1-2.5,2.5-2.5s2.5,1.1,2.5,2.5S13.4,14.5,12,14.5z"/>
</svg>
