<?xml version="1.0" encoding="utf-8"?>
<!-- Generator: Adobe Illustrator 23.0.0, SVG Export Plug-In . SVG Version: 6.00 Build 0)  -->
<svg version="1.1" id="Layer_1" xmlns="http://www.w3.org/2000/svg" xmlns:xlink="http://www.w3.org/1999/xlink" x="0px" y="0px"
	 viewBox="0 0 24 24" style="enable-background:new 0 0 24 24;" xml:space="preserve">
<path d="M19.4,6.9c0-1.4-1.1-2.5-2.5-2.5s-2.5,1.1-2.5,2.5c0,1,0.6,1.8,1.4,2.3c-0.4,1.8-1.9,2.7-4,3.6c-0.5,0.2-1,0.5-1.5,0.7V6.1
	c0.9-0.4,1.5-1.3,1.5-2.3c0-1.4-1.1-2.5-2.5-2.5c-1.4,0-2.5,1.1-2.5,2.5c0,1,0.6,1.9,1.5,2.3v11.3v-1.9v2.5
	c-0.9,0.4-1.5,1.3-1.5,2.3c0,1.4,1.1,2.5,2.5,2.5c1.4,0,2.5-1.1,2.5-2.5c0-1-0.6-1.9-1.5-2.3v-1.5c0-0.6,0.9-1.1,2.4-1.8
	c2-0.9,4.7-2.2,5.2-5.4C18.7,8.9,19.4,8,19.4,6.9z M9.2,2.5c0.7,0,1.2,0.6,1.2,1.2C10.4,4.5,9.8,5,9.2,5C8.5,5,7.9,4.4,7.9,3.8
	S8.5,2.5,9.2,2.5z M9.2,21.5c-0.7,0-1.2-0.6-1.2-1.2c0-0.7,0.6-1.2,1.2-1.2c0.7,0,1.2,0.6,1.2,1.2C10.4,20.9,9.8,21.5,9.2,21.5z
	 M16.8,8.2L16.8,8.2c-0.7,0-1.2-0.6-1.2-1.2c0-0.7,0.6-1.2,1.2-1.2c0.7,0,1.2,0.6,1.2,1.2S17.5,8.2,16.8,8.2z"/>
</svg>
